<svg id="logosandtypes_com" data-name="logosandtypes com" xmlns="http://www.w3.org/2000/svg" viewBox="0 0 150 150"><defs><style>.cls-1{fill:none;}.cls-2{fill-rule:evenodd;}</style></defs><g id="Layer_2" data-name="Layer 2"><path id="Layer_3" data-name="Layer 3" class="cls-1" d="M0,.2H150v150H0Z" transform="translate(0 -0.2)"/></g><g id="Strona-główna"><g id="Homepage-_-Desktop-_-After-scroll" data-name="Homepage-/-Desktop-/-After-scroll"><g id="Group"><g id="Sygnet"><g id="Group-29"><path id="Combined-Shape" class="cls-2" d="M78.54,16.53a58.81,58.81,0,0,1,43.32,98.58h0L136,133.73,117.39,118.9l-12-9.65L71.31,82l7.23-6.89L20.08,16.53ZM40.71,37.21V113H78.54a40.63,40.63,0,0,0,15.81-3.44h0l22.7,9.65a58.1,58.1,0,0,1-38.51,14.48H20.08V37.21Zm37.83,0h-8.6L93,61l-7.22,7.24,23,30.33A38.11,38.11,0,0,0,78.54,37.21Z" transform="translate(0 -0.2)"/></g></g></g></g></g></svg>